<?xml version="1.0" standalone="no"?><svg xmlns="http://www.w3.org/2000/svg" viewBox="0 0 1440 320"><path fill="#0baa40" fill-opacity="1" d="M0,96L24,85.3C48,75,96,53,144,48C192,43,240,53,288,101.3C336,149,384,235,432,229.3C480,224,528,128,576,96C624,64,672,96,720,112C768,128,816,128,864,149.3C912,171,960,213,1008,208C1056,203,1104,149,1152,160C1200,171,1248,245,1296,250.7C1344,256,1392,192,1416,160L1440,128L1440,320L1416,320C1392,320,1344,320,1296,320C1248,320,1200,320,1152,320C1104,320,1056,320,1008,320C960,320,912,320,864,320C816,320,768,320,720,320C672,320,624,320,576,320C528,320,480,320,432,320C384,320,336,320,288,320C240,320,192,320,144,320C96,320,48,320,24,320L0,320Z"></path></svg>